<svg width="27" height="19" viewBox="0 0 27 19" fill="none" xmlns="http://www.w3.org/2000/svg">
<path d="M12.6396 1.80566C13.3631 0.971138 14.6263 0.881187 15.4609 1.60449C16.2956 2.32791 16.3855 3.59107 15.6621 4.42578L4.62695 17.1592C3.90348 17.9935 2.64023 18.0836 1.80566 17.3604C0.971137 16.6369 0.881187 15.3737 1.60449 14.5391L12.6396 1.80566ZM16.6846 7.87695C17.3627 7.00518 18.6194 6.84826 19.4912 7.52637C20.3629 8.20454 20.5199 9.46118 19.8418 10.333L14.6836 16.9648C14.0054 17.8367 12.7488 17.9936 11.877 17.3154C11.0052 16.6373 10.8483 15.3806 11.5264 14.5088L16.6846 7.87695ZM3.5 0.5C5.15685 0.5 6.5 1.84315 6.5 3.5C6.5 5.15685 5.15685 6.5 3.5 6.5C1.84315 6.5 0.5 5.15685 0.5 3.5C0.5 1.84315 1.84315 0.5 3.5 0.5ZM23.5 0.5C25.1569 0.5 26.5 1.84315 26.5 3.5C26.5 5.15685 25.1569 6.5 23.5 6.5C21.8431 6.5 20.5 5.15685 20.5 3.5C20.5 1.84315 21.8431 0.5 23.5 0.5Z" fill="#DD9C3C" stroke="black" stroke-linecap="round"/>
</svg>
